<svg width="410" height="64" viewBox="0 0 410 64" fill="none" xmlns="http://www.w3.org/2000/svg">
<g clip-path="url(#clip0_232_37)">
<mask id="mask0_232_37" style="mask-type:luminance" maskUnits="userSpaceOnUse" x="0" y="0" width="410" height="64">
<path d="M409.6 0H0V64H409.6V0Z" fill="white"/>
</mask>
<g mask="url(#mask0_232_37)">
<path d="M76.6534 0.383484H66.4629V62.8567H101.888V53.144H76.6534V0.383484Z" fill="white"/>
<path d="M125.449 17.6029C122.329 17.4879 119.219 18.0247 116.32 19.1788C113.421 20.333 110.797 22.0788 108.616 24.304C106.463 26.4718 104.772 29.0508 103.646 31.886C102.519 34.7212 101.979 37.7541 102.059 40.8024C101.967 43.885 102.509 46.9535 103.651 49.8199C104.793 52.6862 106.512 55.2898 108.701 57.4704C113.129 61.7964 118.977 64.0019 126.144 64.0019C134.745 64.0019 141.203 60.8211 145.546 54.3882L137.669 49.7939C136.389 51.582 134.679 53.0203 132.694 53.9765C130.71 54.9326 128.516 55.3759 126.314 55.265C118.962 55.265 113.541 51.5611 112.122 44.8599H147.32C147.535 43.5462 147.654 42.2182 147.675 40.8872C147.796 34.7855 145.543 28.8736 141.387 24.3888C139.378 22.1815 136.913 20.4325 134.162 19.2613C131.411 18.0901 128.439 17.5244 125.449 17.6029ZM111.98 37.0983C112.464 33.9613 114.099 31.1146 116.569 29.1091C119.038 27.1035 122.167 26.0815 125.349 26.2408C131.637 26.2408 136.704 29.959 138.023 37.0983H111.98Z" fill="white"/>
<path d="M176.547 17.6C170.26 17.6 165.746 19.8902 162.823 24.3859V18.731H153.285V62.8394H162.851V39.2161C162.851 30.6488 167.364 26.4924 174.092 26.4924C180.209 26.4924 184.027 30.1116 184.027 36.7279V62.854H193.593V35.7665C193.55 24.4849 186.723 17.6 176.547 17.6Z" fill="white"/>
<path d="M236.053 25.0093C232.42 20.0754 227.282 17.6013 220.555 17.6013C217.625 17.5552 214.718 18.1286 212.027 19.2837C209.336 20.4389 206.921 22.1494 204.942 24.3025C202.814 26.4839 201.145 29.0673 200.034 31.9006C198.923 34.7339 198.391 37.7599 198.471 40.8008C198.401 43.8406 198.937 46.8635 200.048 49.6953C201.159 52.5275 202.823 55.1118 204.942 57.2994C206.921 59.4523 209.336 61.1628 212.027 62.3178C214.718 63.4732 217.625 64.0462 220.555 64.0002C227.282 64.0002 232.42 61.5263 236.053 56.5075V62.855H245.619V0.0709839H236.053V25.0093ZM232.065 50.8951C229.363 53.4453 225.782 54.8669 222.059 54.8669C218.336 54.8669 214.755 53.4453 212.053 50.8951C210.74 49.5579 209.711 47.9716 209.026 46.2299C208.34 44.4887 208.014 42.628 208.065 40.7584C208.006 38.9006 208.33 37.0505 209.016 35.3219C209.702 33.5933 210.735 32.0227 212.053 30.7067C214.728 28.1041 218.32 26.6471 222.059 26.6471C225.799 26.6471 229.39 28.1041 232.065 30.7067C233.383 32.0227 234.417 33.5933 235.102 35.3219C235.788 37.0505 236.112 38.9006 236.053 40.7584C236.104 42.628 235.778 44.4887 235.093 46.2299C234.408 47.9716 233.378 49.5579 232.065 50.8951Z" fill="white"/>
<path d="M320.087 17.5981C317.015 17.5642 313.967 18.1405 311.121 19.2933C308.276 20.4461 305.689 22.1523 303.513 24.3123C301.336 26.4722 299.614 29.0425 298.446 31.873C297.279 34.7035 296.689 37.7375 296.712 40.7975C296.689 43.8575 297.279 46.8915 298.446 49.722C299.614 52.5526 301.336 55.1228 303.513 57.283C305.689 59.4428 308.276 61.149 311.121 62.3019C313.967 63.4547 317.015 64.0307 320.087 63.997C323.162 64.0704 326.219 63.5132 329.068 62.3603C331.917 61.2075 334.498 59.4838 336.651 57.2958C338.858 55.1556 340.601 52.5871 341.772 49.7498C342.944 46.912 343.519 43.8652 343.463 40.7975C343.52 37.7297 342.946 34.6827 341.774 31.8449C340.602 29.0072 338.858 26.439 336.651 24.2992C334.498 22.1113 331.917 20.3874 329.068 19.2347C326.219 18.0819 323.162 17.5248 320.087 17.5981ZM329.923 50.7644C327.29 53.3112 323.764 54.7358 320.095 54.7358C316.424 54.7358 312.899 53.3112 310.266 50.7644C308.962 49.4707 307.936 47.9258 307.251 46.2247C306.565 44.5235 306.234 42.7008 306.278 40.8682C306.234 39.0355 306.565 37.2131 307.251 35.5118C307.936 33.8105 308.962 32.2659 310.266 30.9721C312.899 28.4252 316.424 27.0006 320.095 27.0006C323.764 27.0006 327.29 28.4252 329.923 30.9721C331.231 32.2768 332.258 33.8338 332.942 35.5475C333.625 37.2612 333.95 39.0957 333.897 40.9389C333.931 42.7584 333.596 44.5662 332.913 46.2541C332.23 47.9424 331.214 49.4763 329.923 50.7644Z" fill="white"/>
<path d="M398.552 18.746L389.88 49.1837L380.669 18.746H371.543L362.246 49.1837L353.659 18.746H343.568L357.463 62.8546H366.859L376.155 33.1237L385.366 62.8546H394.748L408.657 18.746H398.552Z" fill="white"/>
<path d="M23.7715 44.3937C25.0591 44.3975 26.296 43.8945 27.2131 42.9942C28.1302 42.094 28.6531 40.8693 28.6681 39.5869V15.2564C28.6681 13.9629 28.1522 12.7223 27.2339 11.8076C26.3156 10.8929 25.0702 10.379 23.7715 10.379C22.4729 10.379 21.2274 10.8929 20.3092 11.8076C19.3909 12.7223 18.875 13.9629 18.875 15.2564V39.5869C18.8936 40.8682 19.4177 42.0906 20.334 42.9899C21.2503 43.8898 22.4851 44.3937 23.7715 44.3937Z" fill="white"/>
<path d="M42.6495 0.441672C41.3508 0.441672 40.1054 0.955536 39.1871 1.87023C38.2688 2.78492 37.753 4.02551 37.753 5.31906V39.2488C37.753 42.9418 36.2801 46.484 33.6583 49.0957C31.0366 51.7069 27.4807 53.1742 23.773 53.1742C20.0653 53.1742 16.5094 51.7069 13.8877 49.0957C11.266 46.484 9.79307 42.9418 9.79307 39.2488V26.3555C9.79307 25.062 9.27718 23.8214 8.35891 22.9067C7.44064 21.992 6.19516 21.4781 4.89651 21.4781C3.59789 21.4781 2.35244 21.992 1.43416 22.9067C0.515883 23.8214 0 25.062 0 26.3555V39.1781C0 45.4583 2.50465 51.4816 6.96294 55.9223C11.4213 60.3635 17.468 62.8582 23.773 62.8582C30.078 62.8582 36.1248 60.3635 40.583 55.9223C45.0415 51.4816 47.546 45.4583 47.546 39.1781V5.24837C47.5311 3.96594 47.008 2.7413 46.0911 1.84106C45.1742 0.940812 43.9369 0.437858 42.6495 0.441672Z" fill="white"/>
<path d="M290.953 0.0706871V0H274.958C262.951 0.579635 257.132 6.54562 257.132 17.8414V18.7179H250.404V27.8931H257.132V62.8548H266.697V27.9214H274.93V18.7462H266.697V17.8697C266.697 11.9461 269.692 8.79347 275.753 8.38349C277.172 8.38349 281.43 8.38349 281.43 8.38349V62.8126H290.953V10.9847V0.0706871Z" fill="white"/>
</g>
</g>
<defs>
<clipPath id="clip0_232_37">
<rect width="409.6" height="64" fill="white"/>
</clipPath>
</defs>
</svg>
