<svg width="532" height="56" viewBox="0 0 532 56" fill="none" xmlns="http://www.w3.org/2000/svg">
<g clip-path="url(#clip0_232_56)">
<path d="M25.3053 0.693713H7.26442C6.36779 0.672218 5.47607 0.835946 4.64453 1.1747C3.81299 1.51358 3.06128 2.02024 2.43486 2.663C1.80844 3.30575 1.32083 4.07084 1.00393 4.91048C0.685813 5.75013 0.545783 6.64615 0.590001 7.54254V49.2558C0.554381 50.1375 0.703005 51.0169 1.02727 51.8376C1.3503 52.6584 1.84283 53.4022 2.47171 54.0215C3.10058 54.6408 3.85105 55.1218 4.67645 55.4335C5.50185 55.7452 6.38376 55.8808 7.26442 55.8316H25.3053C41.3845 55.8316 53.7421 44.6403 53.7421 28.1883C53.7421 11.7362 41.3845 0.693713 25.3053 0.693713ZM25.3053 42.8785H13.9401V13.4732H25.3053C34.462 13.4732 40.5911 18.8828 40.5911 28.0394C40.5911 37.1959 34.4374 42.9033 25.3053 42.9033V42.8785ZM89.0045 0.222304C85.2939 0.134605 81.6042 0.798361 78.1577 2.17329C74.7112 3.54833 71.5778 5.60618 68.9469 8.22337C66.3159 10.8404 64.2414 13.9627 62.8485 17.4022C61.4544 20.8418 60.7715 24.5275 60.8391 28.2379C60.7433 31.9548 61.4065 35.6522 62.7908 39.1033C64.1738 42.5545 66.2471 45.6866 68.8855 48.3076C71.5226 50.9286 74.6669 52.9831 78.127 54.3451C81.5858 55.7073 85.2878 56.3482 89.0045 56.2287C92.7188 56.289 96.4085 55.6018 99.8526 54.2077C103.298 52.8137 106.426 50.7414 109.054 48.114C111.681 45.4865 113.753 42.3576 115.147 38.9133C116.541 35.469 117.229 31.7795 117.169 28.0642C117.241 24.3617 116.56 20.6832 115.165 17.2525C113.771 13.8218 111.693 10.7107 109.058 8.10853C106.424 5.50632 103.287 3.46739 99.8391 2.11593C96.3913 0.764339 92.7053 0.128587 89.0045 0.247115V0.222304ZM89.0045 43.6725C86.9803 43.6914 84.9746 43.2977 83.1088 42.5154C81.2431 41.7331 79.5554 40.5788 78.1503 39.1227C76.7452 37.6666 75.652 35.9395 74.9372 34.0466C74.2223 32.1539 73.9005 30.1352 73.9914 28.1138C73.9914 24.1322 75.5734 20.3136 78.3886 17.4982C81.2038 14.6827 85.0225 13.1011 89.0045 13.1011C92.9853 13.1011 96.804 14.6827 99.6192 17.4982C102.436 20.3136 104.016 24.1322 104.016 28.1138C104.016 37.1215 98.0618 43.6973 89.0045 43.6973V43.6725ZM150.767 0.668902H132.727C131.829 0.647408 130.938 0.811136 130.106 1.14989C129.276 1.48877 128.523 1.99543 127.896 2.63819C127.27 3.28094 126.782 4.04603 126.466 4.88567C126.149 5.7252 126.007 6.62134 126.052 7.51773V49.2558C126.016 50.1375 126.165 51.0169 126.489 51.8376C126.813 52.6584 127.306 53.4022 127.933 54.0215C128.562 54.6408 129.314 55.1218 130.139 55.4335C130.965 55.7452 131.847 55.8808 132.727 55.8316H150.767C166.847 55.8316 179.205 44.6403 179.205 28.1883C179.205 11.7362 166.847 0.693713 150.767 0.693713V0.668902ZM150.767 42.8536H139.403V13.4732H150.767C159.924 13.4732 166.053 18.8828 166.053 28.0394C166.053 37.1959 159.899 42.9033 150.767 42.9033V42.8536ZM214.466 0.197492C210.758 0.109916 207.071 0.772814 203.625 2.14626C200.18 3.51984 197.049 5.57547 194.418 8.18996C191.787 10.8043 189.713 13.9236 188.317 17.3602C186.923 20.7968 186.237 24.4799 186.302 28.1883C186.205 31.9051 186.869 35.6026 188.252 39.0537C189.635 42.5049 191.71 45.637 194.347 48.258C196.984 50.879 200.13 52.9335 203.589 54.2955C207.049 55.6577 210.751 56.2986 214.466 56.1791C218.182 56.2394 221.871 55.5522 225.315 54.1581C228.759 52.7641 231.889 50.6918 234.516 48.0644C237.144 45.4369 239.216 42.308 240.61 38.8637C242.004 35.4193 242.691 31.7299 242.63 28.0146C242.697 24.3163 242.01 20.6431 240.612 17.2182C239.216 13.7935 237.136 10.6883 234.503 8.09146C231.868 5.49453 228.735 3.46014 225.29 2.11163C221.846 0.763233 218.163 0.128832 214.466 0.247115V0.197492ZM214.466 43.6476C212.443 43.6666 210.437 43.2729 208.57 42.4906C206.705 41.7085 205.018 40.554 203.613 39.0979C202.208 37.6418 201.115 35.9147 200.399 34.0218C199.684 32.1291 199.362 30.1104 199.453 28.089C199.453 24.1074 201.035 20.2888 203.85 17.4733C206.667 14.6579 210.484 13.0763 214.466 13.0763C218.448 13.0763 222.267 14.6579 225.082 17.4733C227.897 20.2888 229.479 24.1074 229.479 28.089C229.479 37.1215 223.523 43.6973 214.466 43.6973V43.6476Z" fill="white"/>
<path d="M305.694 0.064601H283.36C282.486 0.0348769 281.615 0.188895 280.804 0.516843C279.992 0.844791 279.259 1.33929 278.651 1.96841C278.043 2.59753 277.574 3.34727 277.274 4.16923C276.973 4.99106 276.849 5.86682 276.909 6.73975V48.9242C276.876 49.8122 277.03 50.6966 277.359 51.5207C277.689 52.3449 278.188 53.0905 278.824 53.7107C279.46 54.3298 280.218 54.81 281.051 55.1183C281.884 55.4266 282.772 55.5568 283.659 55.5003C284.534 55.547 285.41 55.4082 286.229 55.095C287.047 54.7806 287.792 54.2979 288.412 53.6776C289.031 53.0573 289.514 52.3142 289.828 51.4949C290.143 50.6757 290.28 49.7999 290.235 48.9242V38.9985H305.694C308.295 39.1263 310.896 38.7087 313.325 37.7703C315.756 36.8331 317.963 35.3972 319.804 33.5561C321.647 31.7137 323.082 29.5065 324.02 27.0769C324.957 24.6462 325.376 22.046 325.248 19.4447C325.369 16.8525 324.946 14.2634 324.005 11.8451C323.063 9.42683 321.623 7.23327 319.781 5.40634C317.937 3.57954 315.731 2.16002 313.304 1.23992C310.877 0.319705 308.284 -0.0807033 305.694 0.064601ZM305.694 26.5414H290.235V12.596H305.694C306.602 12.5792 307.503 12.7527 308.339 13.1054C309.176 13.458 309.929 13.982 310.552 14.6435C311.173 15.3051 311.65 16.0896 311.949 16.9464C312.25 17.8033 312.367 18.7135 312.295 19.6185C312.372 20.522 312.258 21.4318 311.958 22.2879C311.658 23.144 311.182 23.9277 310.558 24.586C309.935 25.2444 309.18 25.7639 308.341 26.1091C307.502 26.4554 306.6 26.6188 305.694 26.5918V26.5414Z" fill="white"/>
<path d="M342.324 -0.381619C341.427 -0.430013 340.529 -0.291834 339.688 0.0241998C338.847 0.340234 338.08 0.82725 337.437 1.4544C336.793 2.08168 336.286 2.83559 335.949 3.66848C335.611 4.50137 335.451 5.39518 335.475 6.29341V48.9252C335.475 50.7418 336.197 52.4835 337.481 53.7682C338.766 55.0518 340.507 55.774 342.324 55.774C344.141 55.774 345.882 55.0518 347.167 53.7682C348.452 52.4835 349.173 50.7418 349.173 48.9252V6.2686C349.195 5.37233 349.032 4.48122 348.691 3.65141C348.352 2.82146 347.846 2.07062 347.203 1.44605C346.559 0.82147 345.794 0.336801 344.955 0.0222412C344.115 -0.292319 343.219 -0.42989 342.324 -0.381619Z" fill="white"/>
<path d="M404.856 42.4487H377.212L404.508 17.8327C408.429 14.3587 410.017 11.5299 410.017 7.90697V7.23694C410.017 2.69591 407.263 0.0407647 402.275 0.0407647H367.435C366.568 -0.00848886 365.698 0.124535 364.885 0.431234C364.072 0.737932 363.332 1.21155 362.712 1.82163C362.093 2.43171 361.608 3.16474 361.289 3.97343C360.97 4.78213 360.823 5.64867 360.86 6.5173C360.822 7.37119 360.97 8.22313 361.293 9.01426C361.617 9.80539 362.108 10.5169 362.733 11.0997C363.359 11.6824 364.103 12.1225 364.915 12.3897C365.727 12.6567 366.586 12.7443 367.435 12.6465H393.02L366.642 36.5186C361.481 41.1333 360.24 43.962 360.24 47.2623V47.8826C360.182 48.8824 360.343 49.8822 360.714 50.812C361.084 51.7406 361.654 52.5783 362.382 53.2649C363.11 53.9502 363.98 54.4686 364.931 54.7818C365.881 55.095 366.889 55.1969 367.882 55.079H404.856C405.734 55.1552 406.617 55.0409 407.447 54.7474C408.278 54.4526 409.035 53.9846 409.67 53.3742C410.304 52.7625 410.8 52.0231 411.126 51.2051C411.451 50.3858 411.598 49.5076 411.556 48.6282C411.595 47.7598 411.445 46.8951 411.115 46.0918C410.784 45.2885 410.282 44.5675 409.643 43.9792C409.006 43.3896 408.247 42.9486 407.419 42.6833C406.592 42.4193 405.718 42.3394 404.856 42.4487Z" fill="white"/>
<path d="M462.702 42.4487H435.059L462.355 17.8327C466.276 14.3587 467.864 11.5299 467.864 7.90697V7.23694C467.864 2.69591 465.11 0.0407647 460.122 0.0407647H425.282C424.414 -0.00848886 423.545 0.124535 422.732 0.431234C421.919 0.737932 421.178 1.21155 420.559 1.82163C419.939 2.43171 419.455 3.16474 419.136 3.97343C418.816 4.78213 418.67 5.64867 418.706 6.5173C418.669 7.37119 418.816 8.22313 419.139 9.01426C419.463 9.80539 419.954 10.5169 420.579 11.0997C421.205 11.6824 421.948 12.1225 422.762 12.3897C423.573 12.6567 424.433 12.7443 425.282 12.6465H450.866L424.489 36.5186C419.326 41.1333 418.086 43.962 418.086 47.2623V47.8826C418.028 48.8824 418.19 49.8822 418.561 50.812C418.931 51.7406 419.499 52.5783 420.229 53.2649C420.957 53.9502 421.827 54.4686 422.778 54.7818C423.727 55.095 424.735 55.1969 425.729 55.079H462.702C463.566 55.1355 464.432 55.0102 465.243 54.7105C466.054 54.4108 466.794 53.9441 467.414 53.341C468.034 52.7367 468.521 52.0108 468.841 51.2075C469.163 50.403 469.312 49.542 469.279 48.6773C469.323 47.8175 469.18 46.9577 468.86 46.1593C468.54 45.3597 468.052 44.6387 467.426 44.0467C466.801 43.4547 466.056 43.0051 465.24 42.73C464.425 42.4536 463.559 42.3578 462.702 42.4487Z" fill="white"/>
<path d="M529.521 45.7243L511.406 6.26869C510.76 4.41351 509.543 2.81087 507.929 1.69167C506.315 0.572344 504.387 -0.00579953 502.423 0.0402606H501.704C499.712 -0.0355236 497.749 0.528251 496.101 1.64905C494.454 2.76984 493.208 4.3887 492.548 6.26869L474.433 45.7243C472.646 49.6449 473.886 53.1676 477.46 54.4339C478.2 54.7987 479.008 55.0051 479.834 55.0407C480.658 55.0751 481.481 54.9375 482.249 54.6366C483.017 54.3357 483.715 53.8763 484.296 53.2904C484.877 52.7045 485.329 52.0032 485.624 51.2331L489.719 42.6217C493.732 43.8892 497.918 44.5169 502.126 44.4825C506.174 44.5648 510.206 43.9347 514.036 42.6217L517.957 51.1581C518.311 51.9209 518.812 52.6063 519.431 53.1749C520.051 53.7436 520.777 54.1834 521.567 54.4708C522.356 54.7582 523.197 54.8859 524.037 54.8466C524.876 54.8085 525.7 54.6047 526.46 54.246C527.222 53.8873 527.903 53.3825 528.468 52.7598C529.033 52.1371 529.469 51.4087 529.751 50.6165C530.033 49.8242 530.156 48.9841 530.112 48.144C530.069 47.305 529.859 46.4821 529.496 45.7243H529.521ZM502.225 32.6714C499.556 32.6874 496.896 32.3619 494.309 31.7036L502.051 14.3334L509.769 31.7036C507.284 32.3656 504.722 32.6911 502.15 32.6714H502.225Z" fill="white"/>
</g>
<defs>
<clipPath id="clip0_232_56">
<rect width="531" height="56" fill="white" transform="translate(0.777344)"/>
</clipPath>
</defs>
</svg>
