<svg width="528" height="147" viewBox="0 0 528 147" fill="none" xmlns="http://www.w3.org/2000/svg">
<g clip-path="url(#clip0_507_2629)">
<path fill-rule="evenodd" clip-rule="evenodd" d="M347.383 45.478C352.591 45.478 356.814 49.7397 356.814 54.9958C356.814 60.2519 352.591 64.5136 347.383 64.5136C342.174 64.5136 337.955 60.2519 337.955 54.9958C337.955 49.7397 342.174 45.478 347.383 45.478ZM474.505 80.4346C474.987 64.471 500.399 63.0149 515.13 72.0177L509.689 82.814C504.615 79.2555 500.223 77.5935 494.634 78.0551C489.334 78.492 488.764 84.3127 497.355 84.0925C510.777 83.7516 518.015 90.8686 517.305 100.017C516.154 114.787 493.1 120.832 472.875 107.887L480.308 96.906C485.931 100.166 491.534 103.078 497.175 102.397C503.027 101.69 505.98 96.9238 495.542 95.8087C481.325 94.2851 474.227 89.7038 474.505 80.4346ZM363.638 114.979V69.4962H380.047V75.8781C386.413 65.2203 411.167 65.0605 411.171 81.706L411.174 114.979H394.814L394.631 92.1116C394.56 82.9667 391.263 82.1038 386.818 82.6116C383.134 83.0307 379.829 84.3802 379.829 92.1116V114.979H363.638ZM338.859 68.6794H355.906V114.979H338.859V68.6794ZM255.741 114.979V69.4962H272.147V75.8781C277.063 67.5998 296.014 63.5618 301.454 76.4002C309.189 64.7338 331.814 65.2665 331.803 81.1165L331.786 114.979H314.394V90.098C314.394 83.4107 313.265 82.7714 307.697 83.02C303.143 83.226 302.105 87.0367 302.084 91.3658L301.975 114.979H285.615L285.435 92.1116C285.361 82.9667 283.373 82.1854 278.918 82.6116C274.505 83.0307 272.58 83.6486 272.58 92.1116V114.979H255.741ZM226.155 66.1188C239.524 66.1188 250.363 77.0572 250.363 90.549C250.363 104.044 239.524 114.979 226.155 114.979C212.782 114.979 201.943 104.044 201.943 90.549C201.943 77.0572 212.782 66.1188 226.155 66.1188ZM226.155 81.8552C230.913 81.8552 234.77 85.7475 234.77 90.549C234.77 95.3505 230.913 99.2429 226.155 99.2429C221.397 99.2429 217.54 95.3505 217.54 90.549C217.54 85.7475 221.397 81.8552 226.155 81.8552ZM135.417 114.979V50.5743H154.396C160.417 50.5743 165.57 50.9046 169.828 51.5651C174.086 52.2257 177.566 53.2485 180.23 54.63C185.886 57.5564 190.204 61.4487 193.23 66.2822C196.239 71.1192 197.745 76.6275 197.745 82.8176C197.745 88.9864 196.239 94.4698 193.244 99.2748C190.249 104.08 185.917 107.969 180.23 110.927C177.478 112.337 173.963 113.374 169.722 114.02C165.482 114.667 159.777 114.979 152.661 114.979H135.417ZM154.365 97.9679V67.5891H162.114C164.574 67.5891 166.678 67.7454 168.417 68.0544C170.158 68.3669 171.58 68.8499 172.668 69.4998C174.976 70.8813 176.739 72.7174 177.978 74.9974C179.206 77.2774 179.822 79.877 179.822 82.7963C179.822 85.7084 179.206 88.2939 177.982 90.5597C176.76 92.8255 174.99 94.6616 172.668 96.0573C171.542 96.7214 170.106 97.2115 168.374 97.5133C166.643 97.8188 164.313 97.9679 161.406 97.9679H154.365ZM439.901 66.1188C453.27 66.1188 464.109 77.0572 464.109 90.549C464.109 104.044 453.27 114.979 439.901 114.979C426.528 114.979 415.689 104.044 415.689 90.549C415.689 77.0572 426.528 66.1188 439.901 66.1188ZM439.901 81.8552C444.655 81.8552 448.512 85.7475 448.512 90.549C448.512 95.3505 444.655 99.2429 439.901 99.2429C435.143 99.2429 431.286 95.3505 431.286 90.549C431.286 85.7475 435.143 81.8552 439.901 81.8552ZM469.156 45.5846C472.889 45.5846 476.099 47.8362 477.524 51.068C478.622 53.5575 478.71 56.7254 478.045 59.3712C477.021 63.4446 473.618 67.4258 466.442 71.208L464.465 68.5054C465.865 67.3228 467.308 66.1046 467.892 65.2132C468.934 63.6186 467.572 64.0129 466.425 63.6506C462.702 62.4786 459.999 58.9698 459.999 54.8289C459.999 49.722 464.099 45.5846 469.156 45.5846Z" fill="white"/>
<path d="M523.059 68.2461C523.724 68.2461 524.379 68.4166 525.016 68.761C525.649 69.1091 526.145 69.6027 526.501 70.2491C526.856 70.8919 527.035 71.5631 527.035 72.2627C527.035 72.9553 526.86 73.6194 526.508 74.2586C526.159 74.8979 525.667 75.3951 525.037 75.7467C524.407 76.1018 523.749 76.2758 523.059 76.2758C522.369 76.2758 521.708 76.1018 521.078 75.7467C520.444 75.3951 519.955 74.8979 519.603 74.2586C519.248 73.6194 519.075 72.9553 519.075 72.2627C519.075 71.5631 519.255 70.8919 519.61 70.2491C519.966 69.6027 520.462 69.1091 521.102 68.761C521.736 68.4166 522.39 68.2461 523.059 68.2461ZM523.059 68.9102C522.499 68.9102 521.954 69.0558 521.426 69.3435C520.895 69.6311 520.479 70.0467 520.184 70.5829C519.885 71.1192 519.733 71.6803 519.733 72.2627C519.733 72.8416 519.881 73.3956 520.177 73.9248C520.469 74.4575 520.881 74.8695 521.408 75.1678C521.933 75.4626 522.485 75.6117 523.059 75.6117C523.629 75.6117 524.181 75.4626 524.709 75.1678C525.237 74.8695 525.645 74.4575 525.938 73.9248C526.226 73.3956 526.374 72.8416 526.374 72.2627C526.374 71.6803 526.226 71.1192 525.93 70.5829C525.631 70.0467 525.216 69.6311 524.688 69.3435C524.157 69.0558 523.611 68.9102 523.059 68.9102ZM521.31 74.4824V70.1603H522.781C523.288 70.1603 523.65 70.1994 523.875 70.2775C524.101 70.3592 524.276 70.4977 524.414 70.6966C524.547 70.8954 524.614 71.1085 524.614 71.3323C524.614 71.6483 524.502 71.9218 524.276 72.1562C524.055 72.3906 523.759 72.522 523.39 72.5504C523.541 72.6143 523.664 72.6889 523.752 72.7777C523.925 72.9482 524.136 73.2358 524.386 73.6371L524.906 74.4824H524.065L523.685 73.8005C523.386 73.2678 523.147 72.9304 522.96 72.7954C522.837 72.696 522.651 72.6463 522.408 72.6463H522.003V74.4824H521.31ZM522.003 72.0497H522.841C523.242 72.0497 523.513 71.9893 523.661 71.8685C523.805 71.7478 523.879 71.588 523.879 71.3891C523.879 71.2612 523.844 71.1476 523.773 71.0446C523.703 70.9452 523.604 70.8706 523.481 70.8209C523.358 70.7711 523.126 70.7463 522.788 70.7463H522.003V72.0497Z" fill="white"/>
<path d="M62.6039 114.551V106.5H59.5669V105.093H67.221V106.5H64.1664V114.551H62.6039ZM68.2697 114.551V105.093H70.5713L72.9361 112.647L75.2236 105.093H77.4829V114.551H76.0541V106.613L73.64 114.551H72.2253L69.7091 106.5V114.551H68.2697Z" fill="white"/>
<path d="M79.9194 78.0894L45.3862 112.94C43.2646 115.081 41.0693 115.155 38.8745 112.94L7.26804 81.0425C5.29262 79.0489 5.43895 76.8346 7.26804 74.9888L41.9468 39.769L79.9194 78.0894ZM28.4848 68.6382C23.313 68.6384 19.1207 72.869 19.1206 78.0884C19.1206 83.3078 23.3129 87.5393 28.4848 87.5396C33.657 87.5396 37.8501 83.3079 37.8501 78.0884C37.85 72.8689 33.6569 68.6382 28.4848 68.6382ZM55.8471 68.6382C50.6751 68.6382 46.482 72.8689 46.4819 78.0884C46.4819 83.3079 50.675 87.5396 55.8471 87.5396C61.019 87.5393 65.2114 83.3078 65.2114 78.0884C65.2113 72.8691 61.019 68.6384 55.8471 68.6382Z" fill="white"/>
<path d="M80.0693 1.65023C82.191 -0.490821 84.3862 -0.564747 86.5811 1.65023L118.188 33.5467C120.163 35.5402 120.016 37.7556 118.188 39.6014L83.5078 74.8202L45.5361 36.4998L80.0693 1.65023ZM83.29 27.12C78.1182 27.12 73.9252 31.352 73.9248 36.5711C73.9249 41.7906 78.118 46.0222 83.29 46.0223C88.462 46.0222 92.6552 41.7906 92.6553 36.5711C92.6549 31.352 88.4618 27.1201 83.29 27.12Z" fill="white"/>
</g>
<defs>
<clipPath id="clip0_507_2629">
<rect width="527" height="147" fill="white" transform="translate(0.761719)"/>
</clipPath>
</defs>
</svg>
