<svg width="490" height="61" viewBox="0 0 490 61" fill="none" xmlns="http://www.w3.org/2000/svg">
<path d="M484.25 5.45765C486.399 7.04918 487.75 9.37323 487.75 12.3698C487.75 16.4071 484.432 20.3847 479.522 20.3847C475.285 20.3847 474.303 17.3259 468.226 17.3259C463.251 17.3259 456.804 20.873 456.804 30.5992C456.804 39.3466 461.534 44.0567 468.47 44.0567C470.558 44.0567 472.523 43.0179 472.523 41.4264C472.523 40.1439 471.355 39.6534 469.698 39.6534C466.321 39.6534 461.778 37.2668 461.778 32.2507C461.778 26.7463 465.953 24.238 471.355 24.238H474.365C484.739 24.238 489.896 29.9269 489.896 38.1239C489.896 51.0934 480.75 59.9631 466.321 59.9631C452.569 59.9631 438.633 50.6024 438.633 30.5992C438.633 9.67973 452.569 0.685547 466.876 0.685547C474.855 0.685547 480.504 2.70559 484.25 5.45765Z" fill="white"/>
<path d="M402.46 36.1661C402.46 35.0653 402.828 34.5745 403.503 34.5745C403.995 34.5745 404.362 34.8808 404.792 35.7376L413.327 52.2537C416.582 58.5556 420.081 60.0226 423.826 60.0226C430.273 60.0226 433.833 55.1905 433.833 49.1356V11.331C433.833 5.39515 430.395 0.685547 424.071 0.685547C417.746 0.685547 414.31 5.39515 414.31 11.331V24.5446C414.31 25.6451 413.942 26.1334 413.264 26.1334C412.775 26.1334 412.407 25.8271 411.977 24.9701L403.443 8.45398C400.188 2.15509 396.813 0.685547 392.943 0.685547C386.499 0.685547 382.937 5.5174 382.937 11.5748V49.3796C382.937 55.3125 386.374 60.0226 392.698 60.0226C399.023 60.0226 402.46 55.3125 402.46 49.3796V36.1661Z" fill="white"/>
<path d="M318.783 49.1953V40.5074C318.783 39.7754 319.09 39.2249 319.828 39.2249C320.81 39.2249 321.055 40.2034 321.3 40.6919C322.712 44.0567 326.825 51.2126 330.632 55.4345C333.212 58.249 336.404 60.0226 339.781 60.0226C345.491 60.0226 350.278 55.0687 350.278 49.7459C350.278 46.4428 348.868 43.9945 346.166 41.0604C342.726 37.3268 338.676 32.4325 337.201 30.1709C336.648 29.3142 336.589 28.7637 336.589 28.5196C336.589 27.8444 336.956 27.3564 337.694 26.6839C339.414 25.0921 343.648 21.1172 345.983 17.5079C347.763 14.7558 348.498 12.2475 348.498 10.1677C348.498 4.84488 343.648 0.685547 338.369 0.685547C334.991 0.685547 331.799 2.58059 329.649 6.06791C326.764 10.7183 323.327 16.1006 321.117 18.2427C320.565 18.7932 320.255 18.9152 319.828 18.9152C319.09 18.9152 318.783 18.4244 318.783 17.6299V11.5128C318.783 5.51715 315.223 0.685547 308.776 0.685547C302.269 0.685547 298.77 5.51715 298.77 11.5128V49.1953C298.77 55.1905 302.269 60.0226 308.776 60.0226C315.223 60.0226 318.783 55.1905 318.783 49.1953Z" fill="white"/>
<path d="M375.822 12.2478C375.822 5.82416 372.077 0.685547 365.2 0.685547C358.323 0.685547 354.578 5.82416 354.578 12.2478V48.4631C354.578 54.8842 358.323 60.0256 365.2 60.0256C372.077 60.0256 375.822 54.8842 375.822 48.4631V12.2478Z" fill="white"/>
<path d="M68.297 60.6119C82.7189 60.6119 90.3779 52.0096 90.3779 41.1858V11.2978C90.3779 5.97417 87.2607 1.71631 81.5627 1.71631C75.8643 1.71631 72.7515 5.97417 72.7515 11.2978V40.2107C72.7515 42.3415 71.5043 44.8224 68.297 44.8224C65.0929 44.8224 64.0236 42.3415 64.0236 40.2107V11.2978C64.0236 5.97417 60.8188 1.71631 55.1211 1.71631C49.4271 1.71631 46.3096 5.97417 46.3096 11.2978V41.1858C46.3096 52.0096 53.8783 60.6119 68.297 60.6119Z" fill="white"/>
<path d="M219.377 37.9878C223.651 37.9878 227.036 35.4166 227.036 30.8913C227.036 26.3699 223.651 23.7983 219.377 23.7983H213.237C211.723 23.7983 211.008 22.9102 211.008 21.7582V20.3387C211.008 19.1827 211.723 18.2986 213.237 18.2986H221.248C226.232 18.2986 230.15 15.3692 230.15 10.0496C230.15 4.81665 226.232 1.8877 221.248 1.8877H204.422C197.391 1.8877 194.005 5.96866 194.005 11.4692V50.5849C194.005 56.081 197.391 60.162 204.422 60.162H221.248C226.232 60.162 230.15 57.237 230.15 51.9138C230.15 46.6808 226.232 43.7555 221.248 43.7555H213.237C211.723 43.7555 211.008 42.867 211.008 41.7154V40.0287C211.008 38.8763 211.723 37.9878 213.237 37.9878H219.377Z" fill="white"/>
<path d="M184.38 6.13401C186.429 7.73007 187.762 10.0381 187.762 13.0537C187.762 17.1346 184.558 21.0347 179.838 21.0347C175.747 21.0347 174.768 18.0191 168.889 18.0191C164.083 18.0191 157.852 21.5661 157.852 31.3241C157.852 40.107 162.394 44.8057 169.07 44.8057C171.205 44.8057 173.075 43.7439 173.075 42.1439C173.075 40.9056 172.006 40.3706 170.313 40.3706C167.022 40.3706 162.658 37.9763 162.658 33.0105C162.658 27.4201 166.754 24.9392 172.006 24.9392H174.855C184.826 24.9392 189.81 30.6162 189.81 38.8648C189.81 51.8156 180.999 60.6855 167.022 60.6855C153.756 60.6855 140.316 51.3716 140.316 31.3241C140.316 10.3922 153.756 1.34546 167.555 1.34546C175.391 1.34546 180.644 3.38557 184.38 6.13401Z" fill="white"/>
<path d="M19.5999 46.8577H17.9984C16.4831 46.8577 15.7729 45.9728 15.7729 44.8169V37.9015C15.7729 36.7456 16.4831 35.8607 17.9984 35.8607H19.5999C23.8736 35.8607 25.1211 38.6994 25.1211 41.2706C25.1211 43.575 23.8736 46.8577 19.5999 46.8577ZM15.7729 17.1462C15.7729 15.9902 16.4831 15.1057 17.9984 15.1057H19.1542C22.9855 15.1057 24.1421 17.7639 24.1421 20.0712C24.1421 22.1983 22.9855 25.2139 19.1542 25.2139H17.9984C16.4831 25.2139 15.7729 24.3294 15.7729 23.1774V17.1462ZM36.3346 30.0068C35.8929 29.649 35.4472 29.2948 35.4472 28.9414C35.4472 28.497 35.7157 28.3201 36.1574 27.789C37.8502 25.8352 39.5394 22.7333 39.5394 18.2079C39.5394 7.56472 32.3301 1.8877 21.1115 1.8877H10.5209C3.48916 1.8877 0.103516 5.96866 0.103516 11.4692V50.5849C0.103516 56.0814 3.48916 60.1623 10.5209 60.1623H23.0728C34.9106 60.1623 42.1235 52.2676 42.1235 42.4226C42.1235 34.5282 37.4045 30.8916 36.3346 30.0068Z" fill="white"/>
<path d="M116.178 26.724H114.931C113.419 26.724 112.705 25.8359 112.705 24.6835V18.6524C112.705 17.5003 113.419 16.6119 114.931 16.6119H116.178C119.914 16.6119 121.07 19.2737 121.07 21.5777C121.07 23.7991 119.914 26.724 116.178 26.724ZM136.562 45.1754C133.981 41.802 131.665 38.877 130.509 35.7708C130.241 35.0632 130.422 34.4419 131.223 33.8206C133.981 31.6898 137.186 26.9912 137.186 19.5412C137.186 8.27304 127.841 1.8877 116.533 1.8877H106.475C99.4389 1.8877 96.0576 5.96903 96.0576 11.4692V51.0293C96.0576 56.3493 99.1744 60.6071 104.872 60.6071C110.571 60.6071 113.684 56.3493 113.684 51.0293V41.6247C113.684 40.4731 114.22 39.9381 115.108 39.9381C116.178 39.9381 116.533 40.5594 116.71 41.6247C117.511 46.1501 119.65 52.2679 122.053 55.3738C125.08 59.3645 127.929 60.6071 130.778 60.6071C135.406 60.6071 139.411 56.9702 139.411 52.4445C139.411 49.4289 138.165 47.2119 136.562 45.1754Z" fill="white"/>
<path d="M254.273 26.724H253.027C251.515 26.724 250.801 25.8359 250.801 24.6835V18.6524C250.801 17.5003 251.515 16.6119 253.027 16.6119H254.273C258.01 16.6119 259.167 19.2737 259.167 21.5777C259.167 23.7991 258.01 26.724 254.273 26.724ZM274.658 45.1754C271.632 41.3579 269.762 38.877 268.605 35.7708C268.337 35.0632 268.518 34.4419 269.319 33.8206C272.078 31.6898 275.282 26.9912 275.282 19.5412C275.282 8.27304 265.934 1.8877 254.629 1.8877H244.57C237.535 1.8877 234.153 5.96903 234.153 11.4692V51.0293C234.153 56.3493 237.271 60.6071 242.969 60.6071C248.667 60.6071 251.78 56.3493 251.78 51.0293V41.6247C251.78 40.4731 252.317 39.9381 253.204 39.9381C254.273 39.9381 254.629 40.5594 254.807 41.6247C255.607 46.1501 257.746 52.2679 260.149 55.3738C263.176 59.3645 266.025 60.6071 268.873 60.6071C273.502 60.6071 277.507 56.9702 277.507 52.4445C277.507 49.4289 276.261 47.2119 274.658 45.1754Z" fill="white"/>
</svg>
