<svg width="48" height="48" viewBox="0 0 48 48" fill="none" xmlns="http://www.w3.org/2000/svg">
<path d="M35.826 10.0594L24 21.8854L12.174 10.0594C11.8896 9.79917 11.5157 9.65866 11.1303 9.6672C10.7448 9.67574 10.3775 9.83267 10.1049 10.1053C9.83225 10.3779 9.67532 10.7452 9.66678 11.1307C9.65824 11.5161 9.79875 11.89 10.059 12.1744L21.879 24.0004L10.056 35.8234C9.91159 35.9611 9.79612 36.1262 9.71642 36.3092C9.63671 36.4921 9.59438 36.6891 9.59191 36.8886C9.58944 37.0881 9.62688 37.2861 9.70203 37.471C9.77718 37.6558 9.88852 37.8237 10.0295 37.9649C10.1705 38.1061 10.3383 38.2177 10.523 38.2931C10.7078 38.3685 10.9057 38.4062 11.1052 38.4041C11.3047 38.4019 11.5018 38.3598 11.6848 38.2804C11.8679 38.2009 12.0332 38.0857 12.171 37.9414L24 26.1184L35.826 37.9444C36.1105 38.2047 36.4844 38.3452 36.8698 38.3367C37.2553 38.3282 37.6226 38.1712 37.8952 37.8986C38.1678 37.626 38.3247 37.2587 38.3333 36.8732C38.3418 36.4878 38.2013 36.1139 37.941 35.8294L26.115 24.0034L37.941 12.1744C38.0855 12.0368 38.2009 11.8717 38.2806 11.6887C38.3603 11.5058 38.4027 11.3088 38.4052 11.1093C38.4076 10.9098 38.3702 10.7118 38.295 10.5269C38.2199 10.3421 38.1085 10.1742 37.9676 10.033C37.8266 9.89177 37.6588 9.78019 37.474 9.70478C37.2893 9.62937 37.0914 9.59165 36.8918 9.59384C36.6923 9.59603 36.4953 9.63808 36.3122 9.71752C36.1292 9.79697 35.9639 9.9122 35.826 10.0564V10.0594Z" fill="#F4F4F4"/>
</svg>
