<svg width="141" height="32" viewBox="0 0 141 32" fill="none" xmlns="http://www.w3.org/2000/svg">
<path d="M122.926 6.05961H126.628V7.22981C128.166 6.13089 130.033 5.52805 131.963 5.52805C134.36 5.52805 136.658 6.45771 138.353 8.11254C140.048 9.7674 141 12.0118 141 14.352V22.6446H137.295V14.352C137.295 12.9713 136.733 11.6471 135.734 10.6708C134.733 9.69444 133.377 9.14591 131.963 9.14591C130.549 9.14591 129.192 9.69444 128.193 10.6708C127.193 11.6471 126.631 12.9713 126.631 14.352L126.628 22.6446H122.926V6.05961Z" fill="white"/>
<path d="M118.57 5.52847H114.868V22.645H118.57V5.52847Z" fill="white"/>
<path d="M118.897 2.12627C118.897 3.30058 117.922 4.25255 116.719 4.25255C115.517 4.25255 114.541 3.30058 114.541 2.12627C114.541 0.951967 115.517 0 116.719 0C117.922 0 118.897 0.951967 118.897 2.12627Z" fill="white"/>
<path d="M106.485 0H110.187V22.6449H106.485V0Z" fill="white"/>
<path d="M84.0563 14.352C84.0563 19.2255 88.1022 23.1761 93.0927 23.1761C98.0843 23.1761 102.13 19.2255 102.13 14.352C102.13 9.47867 98.0843 5.52805 93.0927 5.52805C88.1022 5.52805 84.0563 9.47867 84.0563 14.352ZM98.425 14.352C98.425 17.2274 96.038 19.5583 93.0927 19.5583C90.1485 19.5583 87.7615 17.2274 87.7615 14.352C87.7615 11.4768 90.1485 9.14591 93.0927 9.14591C96.038 9.14591 98.425 11.4768 98.425 14.352Z" fill="white"/>
<path d="M63.0413 14.352C63.0413 19.2255 67.0872 23.1761 72.0778 23.1761C77.0693 23.1761 81.1152 19.2255 81.1152 14.352C81.1152 9.47867 77.0693 5.52805 72.0778 5.52805C67.0872 5.52805 63.0413 9.47867 63.0413 14.352ZM77.41 14.352C77.41 17.2274 75.023 19.5583 72.0778 19.5583C69.1336 19.5583 66.7466 17.2274 66.7466 14.352C66.7466 11.4768 69.1336 9.14591 72.0778 9.14591C75.023 9.14591 77.41 11.4768 77.41 14.352Z" fill="white"/>
<path d="M63.0413 23.1759C63.0413 24.3347 63.2748 25.4822 63.7291 26.5527C64.1834 27.6233 64.8488 28.5961 65.6884 29.4155C66.5268 30.2348 67.5235 30.8848 68.6198 31.3282C69.7162 31.7717 70.8912 32 72.0778 32C73.2654 32 74.4403 31.7717 75.5367 31.3282C76.6331 30.8848 77.6297 30.2348 78.4682 29.4155C79.3077 28.5961 79.9732 27.6233 80.4275 26.5527C80.8817 25.4822 81.1152 24.3347 81.1152 23.1759H77.41C77.41 23.8596 77.2721 24.5366 77.0046 25.1683C76.7361 25.7999 76.3434 26.3738 75.8488 26.8573C75.3531 27.3406 74.7651 27.7242 74.1188 27.9858C73.4713 28.2474 72.7783 28.382 72.0778 28.382C71.3783 28.382 70.6842 28.2474 70.0378 27.9858C69.3904 27.7242 68.8035 27.3406 68.3078 26.8573C67.8132 26.3738 67.4205 25.7999 67.152 25.1683C66.8845 24.5366 66.7466 23.8596 66.7466 23.1759H63.0413Z" fill="white"/>
<path d="M42.0273 6.05961H45.7293V7.22981C47.268 6.13089 49.1344 5.52805 51.0644 5.52805C53.4612 5.52805 55.7599 6.45771 57.4542 8.11254C59.1492 9.7674 60.1013 12.0118 60.1013 14.352V22.6446H56.3961V14.352C56.3961 12.9713 55.8346 11.6471 54.8347 10.6708C53.8347 9.69444 52.4786 9.14591 51.0644 9.14591C49.6503 9.14591 48.2942 9.69444 47.2942 10.6708C46.2943 11.6471 45.7326 12.9713 45.7326 14.352L45.7293 22.6446H42.0273V6.05961Z" fill="white"/>
<path d="M35.3846 22.6446L35.3814 14.352C35.3814 13.1972 34.9881 12.075 34.2633 11.1622C33.5386 10.2494 32.5235 9.59785 31.378 9.31006C30.2324 9.02238 29.0214 9.11461 27.9355 9.57257C26.8497 10.0305 25.9505 10.828 25.3796 11.8396C24.8088 12.851 24.5986 14.0193 24.7821 15.1602C24.9658 16.3012 25.5327 17.3501 26.3938 18.1419C27.2549 18.9338 28.3611 19.4237 29.5385 19.5343C30.716 19.645 31.8976 19.3702 32.8976 18.7533L34.8767 21.8118C33.182 22.8575 31.1791 23.3231 29.1835 23.1355C27.1879 22.9479 25.3128 22.1177 23.8534 20.7757C22.394 19.4335 21.433 17.6556 21.1218 15.7218C20.8107 13.788 21.1669 11.8079 22.1345 10.0934C23.102 8.37902 24.626 7.02732 26.4665 6.25121C28.307 5.47509 30.3596 5.3186 32.3012 5.80636C34.2428 6.29411 35.9631 7.39843 37.1916 8.94548C38.42 10.4925 39.0866 12.3945 39.0866 14.352V22.6446H35.3846Z" fill="white"/>
<path d="M3.70521 14.352L3.70192 31.0434H0V14.352C0 12.3945 0.666639 10.4925 1.89506 8.94548C3.12337 7.39843 4.84373 6.29411 6.78538 5.80636C8.72692 5.3186 10.7795 5.47509 12.6201 6.25121C14.4606 7.02732 15.9845 8.37902 16.9521 10.0934C17.9197 11.8079 18.2759 13.788 17.9647 15.7218C17.6535 17.6556 16.6925 19.4335 15.2332 20.7756C13.7737 22.1177 11.8987 22.9479 9.90301 23.1355C7.90745 23.3231 5.90466 22.8575 4.20978 21.8118L6.189 18.7533C7.18891 19.3702 8.37062 19.645 9.54799 19.5343C10.7255 19.4237 11.8317 18.9338 12.6928 18.1419C13.5539 17.3501 14.1208 16.3012 14.3044 15.1602C14.488 14.0193 14.2778 12.851 13.7069 11.8396C13.1361 10.828 12.2369 10.0305 11.1511 9.57257C10.0651 9.11461 8.85408 9.02238 7.70855 9.31006C6.56302 9.59785 5.54804 10.2494 4.82324 11.1622C4.09855 12.075 3.70521 13.1972 3.70521 14.352Z" fill="white"/>
</svg>
